HIERARCHY
ROOT root
{
	OFFSET 0.000000 0.000000 0.000000
	CHANNELS 6 Xposition Yposition Zposition Zrotation Yrotation Xrotation
	JOINT lhip
	{
		OFFSET 0.058581 -0.082280 -0.017664
		CHANNELS 3 Zrotation Yrotation Xrotation
		JOINT lknee
		{
			OFFSET 0.043451 -0.386469 0.008037
			CHANNELS 3 Zrotation Yrotation Xrotation
			JOINT lankle
			{
				OFFSET -0.014790 -0.426874 -0.037428
				CHANNELS 3 Zrotation Yrotation Xrotation
				JOINT ltoe
				{
					OFFSET 0.041054 -0.060286 0.122042
					CHANNELS 3 Zrotation Yrotation Xrotation
					End Site
					{
						OFFSET 0.000000 0.000000 0.000000
					}
				}
			}
		}
	}
	JOINT rhip
	{
		OFFSET -0.060310 -0.090513 -0.013543
		CHANNELS 3 Zrotation Yrotation Xrotation
		JOINT rknee
		{
			OFFSET -0.043257 -0.383688 -0.004843
			CHANNELS 3 Zrotation Yrotation Xrotation
			JOINT rankle
			{
				OFFSET 0.019056 -0.420046 -0.034562
				CHANNELS 3 Zrotation Yrotation Xrotation
				JOINT rtoe
				{
					OFFSET -0.034840 -0.062106 0.130323
					CHANNELS 3 Zrotation Yrotation Xrotation
					End Site
					{
						OFFSET 0.000000 0.000000 0.000000
					}
				}
			}
		}
	}
	JOINT lowerback
	{
		OFFSET 0.004439 0.124404 -0.038385
		CHANNELS 3 Zrotation Yrotation Xrotation
		JOINT upperback
		{
			OFFSET 0.004488 0.137956 0.026820
			CHANNELS 3 Zrotation Yrotation Xrotation
			JOINT chest
			{
				OFFSET -0.002265 0.056032 0.002855
				CHANNELS 3 Zrotation Yrotation Xrotation
				JOINT lowerneck
				{
					OFFSET -0.013390 0.211636 -0.033468
					CHANNELS 3 Zrotation Yrotation Xrotation
					JOINT upperneck
					{
						OFFSET 0.010113 0.088937 0.050410
						CHANNELS 3 Zrotation Yrotation Xrotation
						End Site
						{
							OFFSET 0.000000 0.000000 0.000000
						}
					}
				}
				JOINT lclavicle
				{
					OFFSET 0.071702 0.114000 -0.018898
					CHANNELS 3 Zrotation Yrotation Xrotation
					JOINT lshoulder
					{
						OFFSET 0.122921 0.045205 -0.019046
						CHANNELS 3 Zrotation Yrotation Xrotation
						JOINT lelbow
						{
							OFFSET 0.255332 -0.015649 -0.022946
							CHANNELS 3 Zrotation Yrotation Xrotation
							JOINT lwrist
							{
								OFFSET 0.265709 0.012698 -0.007375
								CHANNELS 3 Zrotation Yrotation Xrotation
								End Site
								{
									OFFSET 0.000000 0.000000 0.000000
								}
							}
						}
					}
				}
				JOINT rclavicle
				{
					OFFSET -0.082954 0.112472 -0.023707
					CHANNELS 3 Zrotation Yrotation Xrotation
					JOINT rshoulder
					{
						OFFSET -0.113228 0.046853 -0.008472
						CHANNELS 3 Zrotation Yrotation Xrotation
						JOINT relbow
						{
							OFFSET -0.260127 -0.014369 -0.031269
							CHANNELS 3 Zrotation Yrotation Xrotation
							JOINT rwrist
							{
								OFFSET -0.269108 0.006794 -0.006027
								CHANNELS 3 Zrotation Yrotation Xrotation
								End Site
								{
									OFFSET 0.000000 0.000000 0.000000
								}
							}
						}
					}
				}
			}
		}
	}
}
MOTION
Frames: 5
Frame Time: 0.033333
-0.096682 0.526184 0.988249 0.578415 -0.991672 88.385512 8.028772 4.472106 0.165707 -2.944460 -3.652680 3.683309 0.226809 7.659837 -8.284940 0.000000 -0.000000 0.000000 -4.694508 -6.055683 -4.652948 0.450134 -11.107284 13.789328 1.218716 -8.843881 -12.673390 0.000000 -0.000000 0.000000 -0.626341 0.162994 2.937861 1.824744 -1.051900 8.998890 1.134720 -1.104786 -3.601080 -0.031755 3.389632 8.896061 -0.616653 3.258573 21.405476 -29.661469 -1.694987 7.899311 -58.142608 -9.785332 12.378688 9.267272 -23.962734 -4.202123 5.708676 -12.575325 -11.312984 27.700478 8.862851 8.081970 50.826009 12.371341 8.626846 -10.587267 10.965729 -19.132817 -0.402940 12.203318 -19.114380 
-0.097012 0.526996 0.988322 0.621041 -1.011919 88.325542 8.023508 4.458661 0.163559 -2.938603 -3.600567 3.680171 0.173626 7.643794 -8.225015 0.000000 -0.000000 0.000000 -4.689760 -6.122492 -4.597257 0.472652 -11.025524 13.727999 1.208727 -8.838719 -12.631200 0.000000 -0.000000 0.000000 -0.517276 0.179191 2.916804 1.858834 -1.042077 9.059231 1.123164 -1.087936 -3.577307 -0.065764 3.343641 8.836410 -0.655687 3.220222 21.187699 -29.689627 -1.654554 7.718975 -58.145822 -9.736552 12.447507 9.189815 -23.881035 -4.201960 5.707526 -12.548261 -11.266839 27.747811 8.758294 8.021393 50.717432 12.365873 8.598891 -10.569732 11.028123 -19.151698 -0.343607 12.138145 -18.926443 
-0.097189 0.527044 0.988507 0.664363 -1.015819 88.186857 8.032956 4.472083 0.419172 -2.910861 -3.570338 3.447572 0.127911 7.570528 -8.132939 0.000000 -0.000000 0.000000 -4.662157 -6.195897 -4.254355 0.484107 -10.947524 13.375530 1.183715 -8.828328 -12.577871 0.000000 -0.000000 0.000000 -0.403978 0.174132 2.822350 1.897835 -1.089426 9.150911 1.123033 -1.068385 -3.511362 -0.083991 3.270504 8.876518 -0.878329 3.155374 20.817622 -29.745536 -1.547089 7.559141 -58.198089 -9.680065 12.470101 9.164607 -23.619075 -4.023282 5.478154 -12.590625 -11.122124 27.679042 8.723714 7.906523 50.763631 12.343444 8.664474 -10.676188 10.896569 -19.175486 -0.101760 12.217115 -18.772111 
-0.097280 0.526987 0.988681 0.699621 -1.042677 88.122277 8.029612 4.530591 0.602749 -2.908985 -3.529494 3.250111 0.088750 7.438305 -8.094660 0.000000 -0.000000 0.000000 -4.702974 -6.289998 -4.002900 0.521391 -11.004562 13.044245 1.236270 -8.704815 -12.522512 0.000000 -0.000000 0.000000 -0.394641 0.185065 2.664472 1.940498 -1.131906 9.239995 1.138014 -1.124996 -3.529279 -0.026148 3.161882 8.911574 -0.933957 2.772927 20.456503 -29.793557 -1.368045 7.677266 -58.221425 -9.556692 12.249206 9.325940 -23.892249 -4.082852 4.868704 -12.576492 -10.867153 27.667344 8.792893 7.935583 50.729185 12.310709 8.628585 -10.650451 10.624879 -19.244356 0.285316 12.377875 -18.674254 
-0.097078 0.527908 0.988912 0.682820 -1.056972 88.208668 7.958692 4.492691 0.554020 -2.852947 -3.465335 3.064438 0.052809 7.412149 -7.969424 0.000000 -0.000000 0.000000 -4.680493 -6.248072 -4.023137 0.495748 -10.921867 12.799456 1.224399 -8.679304 -12.384461 0.000000 -0.000000 0.000000 -0.346754 0.203482 2.551715 1.996358 -1.151228 9.300273 1.123626 -1.127016 -3.578404 -0.114058 2.888969 8.758600 -0.950055 2.487080 20.305185 -29.790759 -1.315059 7.609238 -58.288958 -9.489766 12.383319 9.256705 -23.856021 -4.165836 4.822123 -12.525166 -10.869417 27.678068 8.741103 7.825003 50.671995 12.201343 8.645642 -10.603587 10.635252 -19.354368 0.185203 12.376365 -18.651414 
